<svg width="143" height="153" viewBox="0 0 143 153" fill="none" xmlns="http://www.w3.org/2000/svg">
<path d="M118.578 65.2373C118.578 67.2147 116.976 68.826 114.996 68.826C113.023 68.826 111.415 67.2209 111.415 65.2373V7.16611H35.268L7.15732 35.3314V145.823H85.7898C87.7694 145.823 89.3715 147.428 89.3715 149.411C89.3715 151.395 87.7695 153 85.7898 153H3.5817C1.60817 153 0 151.395 0 149.411V33.8486C0 32.927 0.353289 32.0176 1.04769 31.3158L31.2245 1.08026C31.8762 0.408911 32.7838 0 33.7889 0H114.997C116.971 0 118.579 1.60505 118.579 3.58867V65.2424L118.578 65.2373ZM114.996 144.34L130.779 128.527H124.249C122.275 128.527 120.667 126.922 120.667 124.938V89.5093H109.325V124.938C109.325 126.916 107.723 128.527 105.744 128.527H99.2138L114.99 144.34H114.996ZM141.944 127.477L117.524 151.944C116.123 153.348 113.863 153.348 112.462 151.944L88.0723 127.507C87.4023 126.854 86.9942 125.944 86.9942 124.937C86.9942 122.96 88.5961 121.349 90.5759 121.349H102.168V85.9197C102.168 83.9423 103.77 82.331 105.749 82.331H124.248C126.222 82.331 127.83 83.9361 127.83 85.9197V121.349H139.421C140.341 121.349 141.249 121.703 141.949 122.398C143.35 123.802 143.35 126.066 141.949 127.47L141.944 127.477ZM31.8263 78.6708C29.8528 78.6708 28.2446 77.0657 28.2446 75.0821C28.2446 73.1048 29.8465 71.4935 31.8263 71.4935H86.7517C88.7253 71.4935 90.3334 73.0985 90.3334 75.0821C90.3334 77.0595 88.7315 78.6708 86.7517 78.6708H31.8263ZM31.8263 56.102C29.8528 56.102 28.2446 54.4969 28.2446 52.5133C28.2446 50.5359 29.8465 48.9246 31.8263 48.9246H86.7517C88.7253 48.9246 90.3334 50.5297 90.3334 52.5133C90.3334 54.4907 88.7315 56.102 86.7517 56.102H31.8263Z" fill="#969FAD"/>
</svg>
