<svg width="224" height="60" viewBox="0 0 224 60" fill="none" xmlns="http://www.w3.org/2000/svg">
<path d="M29.1526 5.88409C8.96151 5.88409 0.264633 14.9691 0.264633 31.0432C0.264633 47.1173 8.96151 56.2023 29.1526 56.2023C39.5573 56.2023 46.8569 54.6498 50.8963 53.0197C53.0698 52.2435 54.467 50.2223 54.467 47.8936V31.4313C54.467 28.4816 51.983 25.9947 49.0333 25.9947H32.2576C30.7051 25.9947 30.0065 26.771 30.0065 31.0432C30.0065 35.3126 30.7051 36.0917 32.2576 36.0917H40.1783L40.2559 44.711C37.8495 45.2543 34.7445 45.6425 30.7051 45.6425C19.6019 45.6425 14.8639 40.0506 14.8639 31.0432C14.8639 22.0358 19.5243 16.444 31.1709 16.444C37.0733 16.444 43.9848 17.1426 48.9556 18.7727C49.1885 18.8503 49.499 18.928 49.6543 18.928C50.8186 18.928 51.5173 17.8412 52.4488 14.2705C52.9145 12.5627 53.1474 11.3178 53.1474 10.5416C53.1474 9.29959 52.6816 8.91147 51.7501 8.60097C46.624 6.97084 37.2285 5.88409 29.1526 5.88409Z" fill="#212529"/>
<path d="M58.4234 50.0671C58.4234 53.0197 60.9074 55.5037 63.8572 55.5037H107.577C109.13 55.5037 109.828 54.7275 109.828 50.2223C109.828 45.7201 109.13 44.9438 107.577 44.9438H72.9422L72.8646 8.83384C72.8646 6.66034 71.7002 5.88409 65.6426 5.88409C59.5878 5.88409 58.4234 6.66034 58.4234 8.83384V50.0671Z" fill="#212529"/>
<path d="M198.356 5.88409C179.251 5.88409 172.343 10.8521 172.343 20.7938C172.343 29.4907 177.311 34.3035 188.184 35.4678L202.858 37.1785C207.984 37.7995 209.226 39.1967 209.226 41.215C209.226 44.3228 206.897 45.6425 200.219 45.6425C189.504 45.6425 183.213 44.3228 174.827 41.836C174.594 41.7583 174.283 41.6807 174.128 41.6807C172.964 41.6807 172.265 42.7675 171.331 46.3411C170.865 48.0488 170.632 49.2908 170.632 50.1447C170.632 51.3091 171.098 51.7777 172.032 52.0882C181.583 55.038 187.563 56.2023 199.675 56.2023C218.156 56.2023 223.67 49.8342 223.67 40.7492C223.67 32.6733 219.401 27.8606 208.605 26.6933L193.307 24.9856C188.65 24.3646 186.861 23.4331 186.861 20.7162C186.861 17.9188 189.193 16.5216 196.803 16.5216C204.801 16.5216 213.731 17.6083 217.768 19.0056C218.078 19.0832 218.311 19.1608 218.544 19.1608C219.634 19.1608 220.332 18.0741 221.264 14.581C221.729 12.8732 221.962 11.6283 221.962 10.8521C221.962 9.61009 221.497 9.22197 220.565 8.91147C215.051 7.12609 207.363 5.88409 198.356 5.88409Z" fill="#212529"/>
<mask id="mask0_75_510" style="mask-type:luminance" maskUnits="userSpaceOnUse" x="110" y="0" width="60" height="60">
<path d="M110.745 0.531616H169.648V59.4346H110.745V0.531616Z" fill="white"/>
</mask>
<g mask="url(#mask0_75_510)">
<path d="M169.553 29.9371C169.553 30.9002 169.507 31.8605 169.412 32.8179C169.317 33.7752 169.176 34.7269 168.989 35.6727C168.802 36.6157 168.567 37.5501 168.288 38.4701C168.009 39.393 167.684 40.2986 167.316 41.187C166.948 42.0782 166.537 42.9465 166.083 43.7975C165.628 44.6456 165.134 45.4707 164.599 46.2729C164.064 47.0721 163.489 47.8455 162.88 48.5901C162.268 49.3347 161.624 50.0477 160.942 50.7291C160.261 51.4076 159.548 52.0545 158.803 52.6669C158.059 53.2764 157.288 53.8485 156.486 54.3832C155.684 54.9209 154.862 55.4154 154.011 55.8667C153.162 56.321 152.291 56.7321 151.403 57.103C150.512 57.471 149.606 57.793 148.686 58.0747C147.763 58.3536 146.832 58.5865 145.886 58.7762C144.943 58.9631 143.991 59.104 143.031 59.1989C142.074 59.2937 141.113 59.3397 140.15 59.3397C139.187 59.3397 138.227 59.2937 137.267 59.1989C136.309 59.104 135.358 58.9631 134.415 58.7762C133.469 58.5865 132.537 58.3536 131.614 58.0747C130.691 57.793 129.786 57.471 128.897 57.103C128.006 56.7321 127.138 56.321 126.29 55.8667C125.439 55.4154 124.614 54.9209 123.814 54.3832C123.012 53.8485 122.242 53.2764 121.497 52.6669C120.753 52.0545 120.04 51.4076 119.358 50.7291C118.677 50.0477 118.03 49.3347 117.42 48.5901C116.808 47.8455 116.236 47.0721 115.701 46.2729C115.166 45.4707 114.672 44.6456 114.218 43.7975C113.763 42.9465 113.352 42.0782 112.984 41.187C112.616 40.2986 112.291 39.393 112.013 38.4701C111.731 37.5501 111.498 36.6157 111.311 35.6727C111.124 34.7269 110.98 33.7752 110.888 32.8179C110.794 31.8605 110.745 30.9002 110.745 29.9371C110.745 28.974 110.794 28.0109 110.888 27.0535C110.98 26.0961 111.124 25.1445 111.311 24.1986C111.498 23.2556 111.731 22.3212 112.013 21.4012C112.291 20.4784 112.616 19.5727 112.984 18.6844C113.352 17.7931 113.763 16.9249 114.218 16.0739C114.672 15.2257 115.166 14.4006 115.701 13.5985C116.236 12.7992 116.808 12.0259 117.42 11.2812C118.03 10.5366 118.677 9.82362 119.358 9.14512C120.04 8.46374 120.753 7.81687 121.497 7.20737C122.242 6.59499 123.012 6.02287 123.814 5.48812C124.614 4.95337 125.439 4.45887 126.29 4.00462C127.138 3.55037 128.006 3.13924 128.897 2.77124C129.786 2.40037 130.691 2.07837 131.614 1.79662C132.537 1.51774 133.469 1.28487 134.415 1.09799C135.358 0.908242 136.309 0.767366 137.267 0.672491C138.227 0.577616 139.187 0.531616 140.15 0.531616C141.113 0.531616 142.074 0.577616 143.031 0.672491C143.991 0.767366 144.943 0.908242 145.886 1.09799C146.832 1.28487 147.763 1.51774 148.686 1.79662C149.606 2.07837 150.512 2.40037 151.403 2.77124C152.291 3.13924 153.162 3.55037 154.011 4.00462C154.862 4.45887 155.684 4.95337 156.486 5.48812C157.288 6.02287 158.059 6.59499 158.803 7.20737C159.548 7.81687 160.261 8.46374 160.942 9.14512C161.624 9.82362 162.268 10.5366 162.88 11.2812C163.489 12.0259 164.064 12.7992 164.599 13.5985C165.134 14.4006 165.628 15.2257 166.083 16.0739C166.537 16.9249 166.948 17.7931 167.316 18.6844C167.684 19.5727 168.009 20.4784 168.288 21.4012C168.567 22.3212 168.802 23.2556 168.989 24.1986C169.176 25.1445 169.317 26.0961 169.412 27.0535C169.507 28.0109 169.553 28.974 169.553 29.9371Z" fill="#4154F1"/>
</g>
<mask id="mask1_75_510" style="mask-type:luminance" maskUnits="userSpaceOnUse" x="120" y="10" width="40" height="40">
<path d="M120.882 10.6689H159.651V49.352H120.882V10.6689Z" fill="white"/>
</mask>
<g mask="url(#mask1_75_510)">
<path d="M158.38 15.7806L156.848 14.8865C156.561 14.7198 156.184 14.6364 155.807 14.6364C155.431 14.6364 155.051 14.7198 154.767 14.8865L153.234 15.7806C152.662 16.1141 152.193 16.9306 152.193 17.5919V19.4003C152.193 19.5958 152.239 19.8056 152.311 20.0126L142.266 25.7914C142.131 25.6361 141.981 25.5039 141.823 25.409L137.272 22.7209C137.177 22.6634 137.065 22.6203 136.953 22.5829V18.3624C137.111 18.3221 137.261 18.2646 137.39 18.1899L138.922 17.2958C139.495 16.9623 139.963 16.1486 139.963 15.4845V13.679C139.963 13.0149 139.495 12.2013 138.922 11.8678L137.39 10.9736C137.103 10.8069 136.726 10.7235 136.349 10.7235C135.973 10.7235 135.596 10.8069 135.309 10.9736L133.776 11.8678C133.204 12.2013 132.735 13.0149 132.735 13.679V15.4845C132.735 16.1486 133.204 16.9623 133.776 17.2958L135.309 18.1899C135.438 18.2646 135.59 18.3221 135.748 18.3624V22.5196C135.547 22.5628 135.36 22.6289 135.199 22.7209L130.651 25.409C130.079 25.7483 129.613 26.5648 129.613 27.226V32.6454C129.613 32.7719 129.636 32.9041 129.665 33.0393L127.42 34.3301C127.31 34.218 127.192 34.1203 127.069 34.0455L125.536 33.1543C125.249 32.9875 124.872 32.9013 124.496 32.9013C124.116 32.9013 123.74 32.9875 123.455 33.1543L121.923 34.0455C121.35 34.3819 120.882 35.1955 120.882 35.8568V37.6651C120.882 38.3264 121.35 39.1429 121.923 39.4764L123.455 40.3705C123.74 40.5373 124.116 40.6206 124.496 40.6206C124.872 40.6206 125.249 40.5373 125.536 40.3705L127.069 39.4764C127.641 39.1429 128.107 38.3264 128.107 37.6651V35.8568C128.107 35.7015 128.081 35.5348 128.032 35.368L130.226 34.1059C130.355 34.2496 130.499 34.3733 130.651 34.4624L135.199 37.1534C135.36 37.2454 135.547 37.3115 135.748 37.3518V41.509C135.59 41.5521 135.438 41.6068 135.309 41.6844L133.776 42.5785C133.204 42.912 132.735 43.7256 132.735 44.3869V46.1953C132.735 46.8565 133.204 47.673 133.776 48.0065L135.309 48.9006C135.596 49.0674 135.973 49.1508 136.349 49.1508C136.726 49.1508 137.103 49.0674 137.39 48.9006L138.922 48.0065C139.495 47.673 139.963 46.8565 139.963 46.1953V44.3869C139.963 43.7256 139.495 42.912 138.922 42.5785L137.39 41.6844C137.261 41.6068 137.111 41.5521 136.953 41.509V37.2914C137.065 37.254 137.177 37.2109 137.272 37.1534L141.823 34.4624C141.947 34.3905 142.065 34.2928 142.174 34.1806L151.94 38.3005C151.912 38.427 151.892 38.5506 151.892 38.6685V40.474C151.892 41.1381 152.36 41.9518 152.932 42.2853L154.465 43.1794C154.752 43.3461 155.129 43.4295 155.505 43.4295C155.882 43.4295 156.259 43.3461 156.546 43.1794L158.079 42.2853C158.651 41.9518 159.119 41.1381 159.119 40.474V38.6685C159.119 38.0044 158.651 37.1908 158.079 36.8573L156.546 35.9631C156.259 35.7964 155.882 35.713 155.505 35.713C155.129 35.713 154.752 35.7964 154.465 35.9631L152.932 36.8573C152.777 36.9493 152.628 37.0786 152.495 37.2281L142.786 33.1313C142.832 32.9674 142.861 32.8035 142.861 32.6454V27.226C142.861 27.111 142.841 26.9874 142.815 26.8666L152.978 21.0189C153.059 21.0908 153.145 21.1598 153.234 21.2115L154.767 22.1056C155.051 22.2724 155.431 22.3558 155.807 22.3558C156.184 22.3558 156.561 22.2724 156.848 22.1056L158.38 21.2115C158.953 20.878 159.418 20.0615 159.418 19.4003V17.5919C159.418 16.9306 158.953 16.1141 158.38 15.7806Z" fill="white"/>
</g>
</svg>
